<?xml version="1.0" encoding="UTF-8"?>
<svg version="1.1" xmlns="http://www.w3.org/2000/svg" width="1024" height="1024">
<path d="M0 0 C337.92 0 675.84 0 1024 0 C1024 337.92 1024 675.84 1024 1024 C686.08 1024 348.16 1024 0 1024 C0 686.08 0 348.16 0 0 Z " fill="#DBDBDC" transform="translate(0,0)"/>
<path d="M0 0 C11.77749595 9.47320327 22.44323522 22.44061116 24.23486328 38.0456543 C25.38545247 56.3004322 21.66914686 72.78131037 9.5625 86.828125 C-1.63063629 98.7371014 -13.48216067 104.23369108 -29 108 C-29.80824219 108.20496094 -30.61648437 108.40992188 -31.44921875 108.62109375 C-35.23804921 109.18390624 -38.98776856 109.14394995 -42.8125 109.125 C-43.58142578 109.12886719 -44.35035156 109.13273438 -45.14257812 109.13671875 C-48.96043906 109.1302751 -52.53063173 108.94270459 -56.29296875 108.27734375 C-59.92198178 107.65883159 -59.92198178 107.65883159 -62.40625 109.37109375 C-63.0971875 110.05300781 -63.788125 110.73492188 -64.5 111.4375 C-68.79630257 115.22757157 -73.08571617 117.85757973 -78.1875 120.375 C-78.85265625 120.70814209 -79.5178125 121.04128418 -80.203125 121.38452148 C-91.64608608 126.92542846 -91.64608608 126.92542846 -98 125 C-97.35553257 121.53897119 -95.95961146 119.13289311 -94.0625 116.1875 C-91.6047712 112.15022368 -89.84057814 108.70723759 -89 104 C-88.84789062 103.24074219 -88.69578125 102.48148438 -88.5390625 101.69921875 C-88.20846695 98.82661145 -88.23968198 96.80050469 -89 94 C-91.21500211 91.31098744 -93.6644247 89.10213438 -96.25390625 86.7734375 C-106.92988396 75.9911556 -111.2916447 61.2698009 -111.31689453 46.49023438 C-111.06225529 29.87895332 -103.5342312 16.55468197 -92 5 C-91.45859375 4.44699219 -90.9171875 3.89398438 -90.359375 3.32421875 C-65.8416581 -19.64566249 -26.30174923 -19.47266004 0 0 Z " fill="#7E41A9" transform="translate(279,452)"/>
<path d="M0 0 C16.94737977 0.84736899 32.81399095 11.33803193 44.26171875 23.37890625 C54.1677681 35.13408482 59.87323441 49.51136234 59.34765625 65.02734375 C57.6428447 79.6044403 53.01409944 92.1720199 42.625 102.6875 C37.80938077 107.35621006 37.80938077 107.35621006 35.9375 113.5625 C37.06389752 120.84385537 40.40966632 128.13794145 44.8125 134 C47 137 47 137 47 141 C36.25401417 142.24953324 24.79364117 135.65999556 16 130 C15.40074707 129.42233887 14.80149414 128.84467773 14.18408203 128.24951172 C8.37442844 122.88602655 4.09261152 122.33636522 -3.69946289 122.6394043 C-4.99489014 122.71715088 -6.29031738 122.79489746 -7.625 122.875 C-21.07246101 123.37106379 -31.51619817 122.52241698 -43 115 C-43 114.67 -43 114.34 -43 114 C-42.030625 113.8040625 -41.06125 113.608125 -40.0625 113.40625 C-20.61176813 109.18592372 -3.24745029 100.00195974 8 83 C17.75033554 66.30475746 21.41490663 47.18752725 16.65795898 28.1237793 C15.55842664 24.57467657 14.0641178 21.30349949 12.375 18 C12.02888672 17.31156006 11.68277344 16.62312012 11.32617188 15.91381836 C8.66168873 10.81589397 5.52309143 6.61282535 1.46875 2.50390625 C0 1 0 1 0 0 Z " fill="#9F6FD0" transform="translate(292,453)"/>
<path d="M0 0 C10.43848007 8.39616875 20.97259385 19.76989251 22.9375 33.625 C23 37 23 37 22 39 C18.8587838 37.55075707 16.26114105 35.76295769 13.5 33.6875 C2.71267142 26.02113444 -7.28085603 23.81993899 -20.1875 23.8125 C-21.28642578 23.80025391 -22.38535156 23.78800781 -23.51757812 23.77539062 C-30.00630223 23.76378289 -35.72753695 24.32425222 -42 26 C-42.05607422 24.42798828 -42.05607422 24.42798828 -42.11328125 22.82421875 C-42.17894515 21.44527695 -42.24539235 20.06637229 -42.3125 18.6875 C-42.33505859 17.99720703 -42.35761719 17.30691406 -42.38085938 16.59570312 C-42.53397125 13.7144161 -42.67503523 11.50304144 -44.26171875 9.046875 C-46.46130159 7.72218241 -47.93873687 7.56676877 -50.5 7.5625 C-51.2734375 7.54316406 -52.046875 7.52382813 -52.84375 7.50390625 C-55.13223334 7.82031489 -55.13223334 7.82031489 -56.62695312 9.72558594 C-58.25196998 12.41738128 -58.28659115 13.77698028 -58.125 16.88671875 C-57.76688384 32.26979723 -57.76688384 32.26979723 -61.2578125 37.16796875 C-64.07434509 39.33600814 -66.96118992 41.1618097 -70 43 C-74.82394639 47.53001417 -77.58772036 51.91186566 -80 58 C-80.94939453 59.13501953 -80.94939453 59.13501953 -81.91796875 60.29296875 C-87.3786966 67.39293949 -90.7411722 79.01715293 -91 88 C-90.12431908 90.25466491 -90.12431908 90.25466491 -89 92 C-96.92206251 88.54724267 -101.41958916 80.76669733 -105.375 73.4375 C-105.70854492 72.82495361 -106.04208984 72.21240723 -106.38574219 71.58129883 C-112.54506312 59.68520031 -113.04818603 44.7796264 -109.375 32 C-105.48337088 21.30140985 -100.03244226 13.04668418 -92 5 C-91.45859375 4.44699219 -90.9171875 3.89398438 -90.359375 3.32421875 C-65.8416581 -19.64566249 -26.30174923 -19.47266004 0 0 Z " fill="#602788" transform="translate(279,452)"/>
<path d="M0 0 C2.33762174 1.44209399 4.35770661 2.96317536 6.296875 4.90234375 C6.626875 3.25234375 6.956875 1.60234375 7.296875 -0.09765625 C12.576875 -0.09765625 17.856875 -0.09765625 23.296875 -0.09765625 C23.296875 18.71234375 23.296875 37.52234375 23.296875 56.90234375 C18.016875 56.90234375 12.736875 56.90234375 7.296875 56.90234375 C6.966875 55.25234375 6.636875 53.60234375 6.296875 51.90234375 C5.245 52.83046875 5.245 52.83046875 4.171875 53.77734375 C-2.41277708 58.64426051 -9.80046249 58.7855825 -17.703125 57.90234375 C-25.78243929 55.49645376 -31.61768243 50.3217927 -35.76171875 43.04296875 C-39.51125929 34.93391457 -40.1676104 25.18563653 -37.140625 16.77734375 C-33.63917991 9.00584368 -28.48404338 3.27633458 -20.6484375 -0.24609375 C-14.02347258 -2.16153454 -6.47084427 -2.62761162 0 0 Z " fill="#58287C" transform="translate(599.703125,484.09765625)"/>
<path d="M0 0 C1.48032896 1.12466551 2.81340809 2.25090809 4.125 3.5625 C4.455 1.9125 4.785 0.2625 5.125 -1.4375 C10.405 -1.4375 15.685 -1.4375 21.125 -1.4375 C21.125 17.3725 21.125 36.1825 21.125 55.5625 C15.845 55.5625 10.565 55.5625 5.125 55.5625 C4.795 53.9125 4.465 52.2625 4.125 50.5625 C3.073125 51.490625 3.073125 51.490625 2 52.4375 C-4.87168297 57.51657002 -12.65148946 57.30666648 -20.875 56.5625 C-27.9405139 54.67459469 -32.94955594 49.50624022 -37.19921875 43.77734375 C-41.86144866 35.54891693 -41.38634225 23.2805276 -39.02734375 14.35546875 C-35.78585991 7.20222814 -30.32296111 2.74386315 -23.8125 -1.375 C-16.55245977 -4.03478432 -6.61707323 -4.12819216 0 0 Z " fill="#773B92" transform="translate(734.875,485.4375)"/>
<path d="M0 0 C5.61 0 11.22 0 17 0 C17.33 10.89 17.66 21.78 18 33 C23.99715674 26.01507627 29.99115677 19.02824878 35.9375 12 C36.37296143 11.48542236 36.80842285 10.97084473 37.25708008 10.44067383 C39.80860583 7.47895471 39.80860583 7.47895471 42.08129883 4.30615234 C43.76249051 1.82186692 45.19057439 0.17561036 48.17407227 -0.47167969 C50.74660635 -0.59065844 53.24185724 -0.52452285 55.8125 -0.375 C56.69615234 -0.34792969 57.57980469 -0.32085937 58.49023438 -0.29296875 C60.66121114 -0.22255869 62.83092529 -0.11494606 65 0 C56.90374839 10.86602189 48.65270526 21.57077313 40 32 C41.55535939 36.78432188 44.2628495 40.21550396 47.3125 44.125 C52.14620514 50.43915812 56.76309676 56.87230149 61.25 63.4375 C61.82274658 64.2723291 62.39549316 65.1071582 62.9855957 65.96728516 C67 71.86919183 67 71.86919183 67 73 C60.34142136 74.07546335 53.54479605 75.08476859 47 73 C41.75535563 69.00058233 38.56583061 63.10408119 35.39160156 57.43017578 C33.13282669 53.48564156 30.5619843 49.75207819 28 46 C23.08658848 48.37349731 20.25394179 50.92688644 18 56 C16.99208692 61.63324914 17.0893031 67.28460168 17 73 C11.39 73 5.78 73 0 73 C0 48.91 0 24.82 0 0 Z " fill="#40176D" transform="translate(381,468)"/>
<path d="M0 0 C5.28 0 10.56 0 16 0 C16 14.52 16 29.04 16 44 C16.66 44 17.32 44 18 44 C18.25652344 43.43410156 18.51304687 42.86820312 18.77734375 42.28515625 C20.66215327 38.76242919 23.20165428 35.86680404 25.765625 32.81640625 C28.06586727 30.04201212 28.06586727 30.04201212 29.859375 26.90234375 C32.03965724 23.52290628 33.694839 21.32313018 37 19 C43.25287425 17.67769304 49.69639916 18.36515109 56 19 C54.26794096 22.6881291 52.11659687 25.21163609 49.3125 28.1875 C45.37871874 32.42300399 41.77759256 36.74758329 38.375 41.41796875 C37.694375 42.20107422 37.694375 42.20107422 37 43 C36.34 43 35.68 43 35 43 C37.5428325 47.49551957 40.56801465 51.52372541 43.6875 55.625 C44.75967078 57.04515317 45.83128293 58.46572827 46.90234375 59.88671875 C47.42683105 60.58200684 47.95131836 61.27729492 48.49169922 61.99365234 C50.59722463 64.79443056 52.67916622 67.61094154 54.75 70.4375 C55.38421875 71.30246094 56.0184375 72.16742187 56.671875 73.05859375 C58 75 58 75 58 76 C51.36562008 77.13108571 44.48938216 78.2763478 38 76 C32.64722863 71.4103651 29.35568834 64.96573736 26.21655273 58.74414062 C25.81509033 58.16857422 25.41362793 57.59300781 25 57 C21.81461327 56.6799078 21.81461327 56.6799078 19.375 59.1875 C15.52064669 63.96782408 16.17927689 70.14362157 16 76 C10.72 76 5.44 76 0 76 C0 50.92 0 25.84 0 0 Z " fill="#643186" transform="translate(636,465)"/>
<path d="M0 0 C0.7734375 -0.00773437 1.546875 -0.01546875 2.34375 -0.0234375 C5.17631233 0.49997076 5.84418412 0.99865439 7.5 3.375 C7.76159322 6.17489129 7.84904338 8.74727929 7.79296875 11.54296875 C7.78872391 12.33778152 7.78447906 13.1325943 7.78010559 13.95149231 C7.7633193 16.48884021 7.72566824 19.02539238 7.6875 21.5625 C7.67245305 23.28319165 7.65876466 25.00389576 7.64648438 26.72460938 C7.61341607 30.94171262 7.56163495 35.15822142 7.5 39.375 C8.16 39.375 8.82 39.375 9.5 39.375 C9.7371875 38.82328125 9.974375 38.2715625 10.21875 37.703125 C11.81245143 34.80725289 13.78917273 32.57987963 16 30.125 C16.7940625 29.23296875 17.588125 28.3409375 18.40625 27.421875 C20.5 25.375 20.5 25.375 22.5 25.375 C22.7475 24.7975 22.995 24.22 23.25 23.625 C24.8487381 20.74727143 25.73619951 19.2624735 28.5 17.375 C33.21843619 16.72145709 37.74705441 16.23266379 41.84375 18.90234375 C42.3903125 19.38832031 42.936875 19.87429688 43.5 20.375 C43.11475326 23.84222065 41.64369861 25.42318435 39.1640625 27.7578125 C36.97610792 29.88413456 34.92955376 32.11967552 32.875 34.375 C32.11960937 35.2 31.36421875 36.025 30.5859375 36.875 C28.58983721 39.26732994 27.02126502 41.66191589 25.5 44.375 C26.20125 45.25800781 26.9025 46.14101563 27.625 47.05078125 C30.11142982 50.19012408 32.58147858 53.34188209 35.04150391 56.50195312 C35.96058432 57.6822653 36.88183492 58.86089386 37.80615234 60.03710938 C38.94595848 61.49406691 40.06733016 62.96539171 41.1875 64.4375 C41.83074219 65.27410156 42.47398437 66.11070312 43.13671875 66.97265625 C44.68758989 69.7055667 44.86989836 71.28179198 44.5 74.375 C42.00092587 76.87407413 37.49309282 76.37613425 34.2109375 76.390625 C26.47062665 74.27222414 22.02648666 66.62837474 17.5 60.375 C16.88382813 59.55515625 16.26765625 58.7353125 15.6328125 57.890625 C15.25898438 57.39046875 14.88515625 56.8903125 14.5 56.375 C12.03199953 57.52673355 10.45216435 58.42283565 8.5 60.375 C8.15223309 63.72060573 8.0566652 67.04515043 7.94140625 70.40625 C7.72291016 71.87578125 7.72291016 71.87578125 7.5 73.375 C4.40219052 75.44020632 3.5459519 75.66977024 0 75.6875 C-1.16015625 75.71263672 -1.16015625 75.71263672 -2.34375 75.73828125 C-5.13648031 75.2677669 -5.82515722 74.65491381 -7.5 72.375 C-7.88095093 69.41491699 -7.88095093 69.41491699 -7.88818359 65.74804688 C-7.89344055 65.0794313 -7.89869751 64.41081573 -7.90411377 63.72193909 C-7.91731525 61.51230493 -7.90857581 59.30339146 -7.8984375 57.09375 C-7.90045821 55.55822613 -7.90336962 54.0227032 -7.90713501 52.48718262 C-7.91155854 49.26919415 -7.90512659 46.05145552 -7.89111328 42.83349609 C-7.87402111 38.70726384 -7.88386218 34.58161696 -7.90183067 30.45540619 C-7.91266788 27.28468408 -7.90922252 24.11410091 -7.9014473 20.94337463 C-7.8994451 19.42192007 -7.90190526 17.90045293 -7.90888596 16.37901306 C-7.91649972 14.25298622 -7.90489882 12.12790917 -7.88818359 10.00195312 C-7.88579681 8.79188599 -7.88341003 7.58181885 -7.88095093 6.33508301 C-7.5 3.375 -7.5 3.375 -6.11050415 1.48571777 C-3.98398503 0.01911952 -2.56742679 -0.02567427 0 0 Z " fill="#DBDADB" transform="translate(228.5,458.625)"/>
<path d="M0 0 C5.06598075 2.62611502 8.48016108 6.43938415 11.12475586 11.45019531 C12.45700624 15.69425043 12.30892548 19.6920582 12.2578125 24.11328125 C12.2549826 25.0384404 12.25215271 25.96359955 12.24923706 26.91679382 C12.23807392 29.86132942 12.21297637 32.80555688 12.1875 35.75 C12.17746521 37.75064664 12.16834023 39.75129806 12.16015625 41.75195312 C12.13814722 46.6472535 12.10364391 51.54232457 12.0625 56.4375 C7.1125 56.4375 2.1625 56.4375 -2.9375 56.4375 C-2.95208252 55.37313721 -2.96666504 54.30877441 -2.98168945 53.2121582 C-3.0397978 49.25153531 -3.11702945 45.29147352 -3.19995117 41.33129883 C-3.23314169 39.61947762 -3.26119189 37.90754852 -3.28393555 36.19555664 C-3.31759032 33.73016521 -3.36990974 31.26575719 -3.42578125 28.80078125 C-3.43217117 28.03913162 -3.4385611 27.27748199 -3.44514465 26.49275208 C-3.56899452 21.98548015 -4.1666116 19.033596 -6.9375 15.4375 C-11.13761468 12.56465649 -16.04544046 12.63798865 -20.9375 13.4375 C-23.76174288 15.62772918 -25.35258603 17.26767207 -26.9375 20.4375 C-27.09426775 23.13405446 -27.19586315 25.80879977 -27.25390625 28.5078125 C-27.27468735 29.30404022 -27.29546844 30.10026794 -27.31687927 30.92062378 C-27.38234149 33.46782685 -27.44124415 36.01513425 -27.5 38.5625 C-27.5431884 40.28777127 -27.58680279 42.01303193 -27.63085938 43.73828125 C-27.73882245 47.97124872 -27.83792007 52.20429371 -27.9375 56.4375 C-33.2175 56.4375 -38.4975 56.4375 -43.9375 56.4375 C-43.9375 37.6275 -43.9375 18.8175 -43.9375 -0.5625 C-38.6575 -0.5625 -33.3775 -0.5625 -27.9375 -0.5625 C-27.6075 0.7575 -27.2775 2.0775 -26.9375 3.4375 C-25.5453125 2.4784375 -25.5453125 2.4784375 -24.125 1.5 C-17.14539978 -3.01621191 -7.68646572 -3.06411069 0 0 Z " fill="#87429B" transform="translate(812.9375,484.5625)"/>
<path d="M0 0 C5.61 0 11.22 0 17 0 C17.02578125 2.61292969 17.0515625 5.22585938 17.078125 7.91796875 C17.11656924 10.45656984 17.16172164 12.99496945 17.20751953 15.53344727 C17.23569499 17.29376561 17.25692659 19.05420967 17.27099609 20.81469727 C17.29247373 23.34977411 17.33914592 25.8833451 17.390625 28.41796875 C17.39185364 29.20149216 17.39308228 29.98501556 17.39434814 30.7922821 C17.52660062 35.75806539 18.28262639 38.39091207 22 42 C25.19632951 43.59816475 28.52299267 43.36705452 32 43 C35.11387046 41.71383611 36.53574413 40.88253669 38.10693359 37.89575195 C39.24385943 34.20929013 39.35436844 30.67846507 39.4140625 26.85546875 C39.43342865 26.08568192 39.4527948 25.31589508 39.4727478 24.52278137 C39.53225623 22.07779829 39.57881295 19.63276738 39.625 17.1875 C39.66320631 15.52406866 39.70225957 13.86065653 39.7421875 12.19726562 C39.83951982 8.13161367 39.91931395 4.06615238 40 0 C45.28 0 50.56 0 56 0 C56.0692303 5.10509379 56.128853 10.20852985 56.16479492 15.3137207 C56.17979269 17.04685006 56.20019772 18.77994204 56.22631836 20.51293945 C56.26310203 23.01783525 56.27981651 25.5222252 56.29296875 28.02734375 C56.30845261 28.79022202 56.32393646 29.55310028 56.33988953 30.33909607 C56.34247512 38.78403543 54.01344485 46.11472157 48.12890625 52.26953125 C40.34131249 58.5996304 30.6176249 58.92192617 21 58 C14.44170684 56.8278383 9.28316892 54.13407188 5 49 C-1.07920736 39.03052393 -0.59873702 28.97265151 -0.3125 17.75 C-0.28736259 16.02216802 -0.26455911 14.29430044 -0.24414062 12.56640625 C-0.19391982 8.37598229 -0.09601704 4.19061032 0 0 Z " fill="#451B6E" transform="translate(454,484)"/>
<path d="M0 0 C8.18742127 0.40937106 17.33347011 2.1573201 23.1953125 8.30078125 C33.84574343 24.23032188 35.1162029 45.63430146 31.55126953 63.98852539 C27.33401003 82.83223859 15.9883184 101.63996664 -0.16796875 112.40234375 C-4.64578807 114.92845148 -9.31921705 116.8440372 -14.09375 118.73828125 C-17.05902298 119.81433793 -17.05902298 119.81433793 -19 122 C-26.60488962 123.00441938 -33.20297387 120.30088136 -40 117 C-41.88671875 115.33203125 -41.88671875 115.33203125 -43 114 C-42.030625 113.8040625 -41.06125 113.608125 -40.0625 113.40625 C-20.61176813 109.18592372 -3.24745029 100.00195974 8 83 C17.75033554 66.30475746 21.41490663 47.18752725 16.65795898 28.1237793 C15.55842664 24.57467657 14.0641178 21.30349949 12.375 18 C12.02888672 17.31156006 11.68277344 16.62312012 11.32617188 15.91381836 C8.66168873 10.81589397 5.52309143 6.61282535 1.46875 2.50390625 C0 1 0 1 0 0 Z " fill="#7542AA" transform="translate(292,453)"/>
<path d="M0 0 C0 4.95 0 9.9 0 15 C-1.340625 15.0825 -2.68125 15.165 -4.0625 15.25 C-8.9754203 15.80018508 -11.97839883 17.12742774 -16 20 C-18.55160631 23.60666933 -18.34605869 27.57133572 -18.4140625 31.828125 C-18.43342865 32.57713074 -18.4527948 33.32613647 -18.4727478 34.09783936 C-18.53235716 36.48177836 -18.57885354 38.86576614 -18.625 41.25 C-18.66319701 42.86981231 -18.70224975 44.48960468 -18.7421875 46.109375 C-18.83964904 50.07281082 -18.91936277 54.03604345 -19 58 C-24.28 58 -29.56 58 -35 58 C-35 39.19 -35 20.38 -35 1 C-29.72 1 -24.44 1 -19 1 C-18.67 2.98 -18.34 4.96 -18 7 C-17.51789062 6.57847656 -17.03578125 6.15695312 -16.5390625 5.72265625 C-15.90742187 5.17480469 -15.27578125 4.62695312 -14.625 4.0625 C-13.68527344 3.24458984 -13.68527344 3.24458984 -12.7265625 2.41015625 C-8.72238653 -0.86022277 -5.00776845 -0.07153955 0 0 Z " fill="#4B1F72" transform="translate(558,483)"/>
<path d="M0 0 C5.28 0 10.56 0 16 0 C16 18.81 16 37.62 16 57 C10.72 57 5.44 57 0 57 C0 38.19 0 19.38 0 0 Z " fill="#90469F" transform="translate(839,484)"/>
<path d="M0 0 C0.66 0 1.32 0 2 0 C2.51046875 1.17755859 2.51046875 1.17755859 3.03125 2.37890625 C8.05320028 13.26425062 13.78827324 18.82155554 25 23 C25 23.66 25 24.32 25 25 C24.21496094 25.3403125 23.42992187 25.680625 22.62109375 26.03125 C11.73574938 31.05320028 6.17844446 36.78827324 2 48 C1.34 48 0.68 48 0 48 C-0.3403125 47.21496094 -0.680625 46.42992187 -1.03125 45.62109375 C-6.05320028 34.73574938 -11.78827324 29.17844446 -23 25 C-23 24.34 -23 23.68 -23 23 C-22.21496094 22.6596875 -21.42992187 22.319375 -20.62109375 21.96875 C-9.73574938 16.94679972 -4.17844446 11.21172676 0 0 Z " fill="#EDEDED" transform="translate(967,944)"/>
<path d="M0 0 C5.13308791 2.61320839 8.1797908 5.53937241 10 11 C10.83985126 17.08292267 9.99903421 21.32599952 6.40625 26.3359375 C3.77318155 29.45173517 1.75253499 30.7677009 -2.328125 31.30859375 C-6.66879667 31.52302813 -9.46500311 31.25290762 -13.4375 29.375 C-18.15784416 25.00004688 -19.19524297 21.31431228 -19.4375 15 C-19.29802997 9.88398579 -18.62915068 6.82532099 -15 3 C-10.63912272 -0.84783289 -5.53618134 -0.80735978 0 0 Z " fill="#D9DADB" transform="translate(597,497)"/>
<path d="M0 0 C3.67140625 1.72858966 5.64179829 4.46269744 7.875 7.8125 C9.85849084 13.43239071 9.76218119 17.87634528 7.375 23.25 C5.18232516 27.10425196 3.15195603 29.18823737 -1 31 C-5.45174239 31.69662139 -9.82721023 32.04982318 -13.97265625 30.046875 C-17.25716728 27.49673867 -18.74909738 24.87050586 -20 21 C-20.64620252 15.41711078 -20.73885046 10.55979542 -18.3125 5.4375 C-12.88098427 -0.28761117 -7.74144234 -1.20498221 0 0 Z " fill="#D9D9DC" transform="translate(731,497)"/>
<path d="M0 0 C5.28 0 10.56 0 16 0 C15.67 9.57 15.34 19.14 15 29 C12.36 29 9.72 29 7 29 C6.67 29.66 6.34 30.32 6 31 C3.03 32.485 3.03 32.485 0 34 C0 22.78 0 11.56 0 0 Z " fill="#390F66" transform="translate(382,468)"/>
<path d="M0 0 C0.33 0 0.66 0 1 0 C1.33 4.62 1.66 9.24 2 14 C3.051875 13.67257812 4.10375 13.34515625 5.1875 13.0078125 C11.0781312 11.5351547 16.96645929 11.78515346 23 11.875 C24.73443359 11.88853516 24.73443359 11.88853516 26.50390625 11.90234375 C29.33615647 11.92575078 32.16796619 11.95854005 35 12 C35.66 13.32 36.32 14.64 37 16 C36.28714844 15.68160156 35.57429688 15.36320312 34.83984375 15.03515625 C30.21992834 13.35114307 25.83252864 13.06053935 21 14 C18.38349636 15.94462483 16.80578801 18.31663277 15 21 C13.3545622 22.68762851 11.68711423 24.3540349 10 26 C8.74708759 27.22619786 7.49722419 28.45551684 6.25 29.6875 C5.65703125 30.26886719 5.0640625 30.85023438 4.453125 31.44921875 C2.90358196 32.95513974 2.90358196 32.95513974 2 35 C1.34 35 0.68 35 0 35 C0 23.45 0 11.9 0 0 Z " fill="#9E56B7" transform="translate(236,463)"/>
<path d="M0 0 C4.6 2.2 4.6 2.2 6 5 C6.34560019 8.01165884 6.58340289 10.094098 6 13 C3.11239742 16.30011723 1.28752448 17.78979192 -3.0625 18.5 C-7.13779236 17.80633322 -9.79834851 16.52937462 -12.375 13.25 C-13.32835544 9.81792041 -12.91654656 7.42177384 -12 4 C-8.36805826 -0.16605082 -5.39222987 -0.67402873 0 0 Z " fill="#934BA4" transform="translate(850,459)"/>
<path d="M0 0 C0.99 0.33 1.98 0.66 3 1 C2.67 2.32 2.34 3.64 2 5 C5.465 4.505 5.465 4.505 9 4 C8.75 5.875 8.75 5.875 8 8 C6 9.125 6 9.125 4 10 C3.67 10.66 3.34 11.32 3 12 C0.58314288 7.77050005 -0.34833144 4.87664009 0 0 Z " fill="#3D1A77" transform="translate(170,512)"/>
<path d="M0 0 C0.33 1.65 0.66 3.3 1 5 C-0.5625 5.75 -0.5625 5.75 -3 6 C-5.50286409 4.86915563 -7.67007722 3.47860484 -10 2 C-10 1.67 -10 1.34 -10 1 C-6.59437148 0.22157062 -3.49234244 -0.09978121 0 0 Z " fill="#55339D" transform="translate(259,566)"/>
<path d="M0 0 C0.66 0.66 1.32 1.32 2 2 C1.54625 2.61875 1.0925 3.2375 0.625 3.875 C-1.24501037 7.4711738 -1.88313256 10.7289581 -2.5703125 14.6953125 C-3 17 -3 17 -4 20 C-4.33 20 -4.66 20 -5 20 C-5.46857004 12.73716432 -4.22574137 7.52921144 -1 1 C-0.67 0.67 -0.34 0.34 0 0 Z " fill="#4C247D" transform="translate(174,475)"/>
<path d="M0 0 C0 3.69840628 -0.82866944 4.31415433 -3.25 7 C-4.15492188 8.0209375 -4.15492188 8.0209375 -5.078125 9.0625 C-6.93766612 10.93715934 -8.84794211 12.47641919 -11 14 C-9.42219077 10.28954753 -7.09296752 7.70093616 -4.375 4.75 C-3.55773437 3.85796875 -2.74046875 2.9659375 -1.8984375 2.046875 C-1.27195312 1.37140625 -0.64546875 0.6959375 0 0 Z M-13 15 C-12.34 15.66 -11.68 16.32 -11 17 C-11.66 17.66 -12.32 18.32 -13 19 C-13.33 18.01 -13.66 17.02 -14 16 C-13.67 15.67 -13.34 15.34 -13 15 Z " fill="#A761BE" transform="translate(267,486)"/>
<path d="M0 0 C6.27 0 12.54 0 19 0 C17 4 17 4 15 5 C14.67 4.01 14.34 3.02 14 2 C7.07 1.505 7.07 1.505 0 1 C0 0.67 0 0.34 0 0 Z " fill="#723B92" transform="translate(673,484)"/>
<path d="M0 0 C2.97 0.33 5.94 0.66 9 1 C8.34 2.32 7.68 3.64 7 5 C7.33 5.66 7.66 6.32 8 7 C4.2047869 5.50902342 2.38957269 3.24299151 0 0 Z " fill="#A66FC2" transform="translate(292,453)"/>
<path d="M0 0 C-2 2 -2 2 -3.9453125 2.1953125 C-5.96354167 2.13020833 -7.98177083 2.06510417 -10 2 C-10.33 1.34 -10.66 0.68 -11 0 C-3.57142857 -1.28571429 -3.57142857 -1.28571429 0 0 Z " fill="#5E3EA9" transform="translate(275,573)"/>
<path d="M0 0 C0.33 0 0.66 0 1 0 C1 3.3 1 6.6 1 10 C0.34 8.68 -0.32 7.36 -1 6 C-1.66 5.01 -2.32 4.02 -3 3 C-2.34 3 -1.68 3 -1 3 C-0.67 2.01 -0.34 1.02 0 0 Z " fill="#A358B4" transform="translate(302,488)"/>
</svg>
